<svg id="arrow.up.to.line" xmlns="http://www.w3.org/2000/svg" width="15.166" height="20.244" viewBox="0 0 15.166 20.244">
  <rect id="사각형_24085" data-name="사각형 24085" width="15.166" height="20.244" transform="translate(0 0)" fill="#b5b3ba" opacity="0"/>
  <path id="패스_7799" data-name="패스 7799" d="M14.8,11.074a.879.879,0,0,1-.264.635L8.057,18.2a.877.877,0,0,1-1.309,0L.273,11.709A.89.89,0,0,1,0,11.074a.824.824,0,0,1,.84-.85.847.847,0,0,1,.615.234l2.227,2.188,3.506,3.838-.557.2-.1-2.91V.9A.828.828,0,0,1,7.4.039.828.828,0,0,1,8.271.9V13.77l-.1,2.91-.547-.2,3.5-3.838,2.227-2.188a.864.864,0,0,1,.615-.234A.824.824,0,0,1,14.8,11.074Zm0,8.291a.826.826,0,0,1-.84.879H.859a.874.874,0,0,1,0-1.748H13.965A.818.818,0,0,1,14.8,19.365Z" transform="translate(0 -0.039)" fill="#b5b3ba"/>
</svg>
