<svg id="arrow.up.to.line" xmlns="http://www.w3.org/2000/svg" width="15.166" height="20.244" viewBox="0 0 15.166 20.244">
  <rect id="사각형_24085" data-name="사각형 24085" width="15.166" height="20.244" fill="#b5b3ba" opacity="0"/>
  <path id="패스_7799" data-name="패스 7799" d="M14.8,9.209a.879.879,0,0,0-.264-.635L8.057,2.08a.877.877,0,0,0-1.309,0L.273,8.574A.89.89,0,0,0,0,9.209a.824.824,0,0,0,.84.85.847.847,0,0,0,.615-.234L3.682,7.637,7.188,3.8l-.557-.2-.1,2.91V19.385a.828.828,0,0,0,.869.859.828.828,0,0,0,.869-.859V6.514l-.1-2.91-.547.2,3.5,3.838L13.35,9.824a.864.864,0,0,0,.615.234A.824.824,0,0,0,14.8,9.209Zm0-8.291a.826.826,0,0,0-.84-.879H.859A.836.836,0,0,0,0,.918a.828.828,0,0,0,.859.869H13.965A.818.818,0,0,0,14.8.918Z" transform="translate(0 0)" fill="#b5b3ba"/>
</svg>
